# xmcd
#
# Track frame offsets:
#	150
#	15405
#	32277
#	51628
#	71090
#	88525
#	103989
#	119181
#	132546
#	148436
#	159322
#	175378
#	190058
#	203432
#	223063
#	243246
#	265338
#	286068
#
# Disc length: 4158 seconds
#
# Revision: 1
# Processed by: cddbd v1.5.2PL0 Copyright (c) Steve Scherf et al.
# Submitted via: audiograbber 1.83.01
#
DISCID=14103c12
DTITLE=Various Artist - NRJ Party Planet [CD2)
DYEAR=2008
DGENRE=Dance
TTITLE0=Syke 'n Sugarstarr - Danz (Devotion)
TTITLE1=Sunfreakz Feat. Andrea Britton - Counting Down The Days (Axwell Remix)
TTITLE2=Hi-Tack - Let's Dance (Dennis Christopher Mojito Mix)
TTITLE3=Bob Sinclar and Cutee B. - Sound Of Freedom
TTITLE4=Yves Larock - Rise Up (Vandalism Remix)
TTITLE5=Peter Gelderblom - Waiting 4
TTITLE6=Boozebangers - Do You Wanna? (Heikki L Powerhouse Remix)
TTITLE7=Heikki L Vs. Sami S. - I Want That Bass
TTITLE8=Armand Van Helden - I Want Your Soul
TTITLE9=Hardrox - Feel The Hard Rock (Heiko and Maiko Mix)
TTITLE10=Mighty Dub Katz - Magic Carpet Ride 07' (Young Punx Remix)
TTITLE11=Dave Spoon Feat. Lisa Maffia - Bad Girl (At Night)
TTITLE12=K-System and DJ Mio - The Rhythm
TTITLE13=Mauro Picotto - Evribadi
TTITLE14=Mark Sinclair - Electric Sun
TTITLE15=Yanou Feat. Liz - King Of My Castle (Sander Van Doorn Remix)
TTITLE16=K-System - Samba 69 (Original Mix)
TTITLE17=Alex Kunnari - Lifter (Original Mix)
EXTD=TR.
EXTT0=
EXTT1=
EXTT2=
EXTT3=
EXTT4=
EXTT5=
EXTT6=
EXTT7=
EXTT8=
EXTT9=
EXTT10=
EXTT11=
EXTT12=
EXTT13=
EXTT14=
EXTT15=
EXTT16=
EXTT17=
PLAYORDER=
